<?xml version='1.0' encoding='utf8'?>
<svg class="toyplot-canvas-Canvas" xmlns:toyplot="http://www.sandia.gov/toyplot" xmlns:xlink="http://www.w3.org/1999/xlink" xmlns="http://www.w3.org/2000/svg" width="1000.0px" height="1035.0px" viewBox="0 0 1000.0 1035.0" preserveAspectRatio="xMidYMid meet" style="background-color:transparent;border-color:#292724;border-style:none;border-width:1.0;fill:rgb(16.1%,15.3%,14.1%);fill-opacity:1.0;font-family:Helvetica;font-size:12px;opacity:1.0;stroke:rgb(16.1%,15.3%,14.1%);stroke-opacity:1.0;stroke-width:1.0" id="tc33a2d990b2643ea847e07086f379073"><g class="toyplot-coordinates-Cartesian" id="te4bb25f075504c5ebaaa5bc70e45f90f"><clipPath id="tb984ed8699364b7f9410112beee62253"><rect x="30.0" y="30.0" width="940.0" height="975.0" /></clipPath><g clip-path="url(#tb984ed8699364b7f9410112beee62253)"><g class="toytree-mark-Toytree" id="tc5331471f17546dd955e5ca3f64f5dda"><g class="toytree-Edges" style="fill:none;stroke:rgb(14.9%,14.9%,14.9%);stroke-linecap:round;stroke-opacity:1;stroke-width:2"><path d="M 51.4 180.3 L 51.4 104.5 L 373.4 104.5" id="116,115" /><path d="M 51.4 180.3 L 51.4 256.2 L 265.6 256.2" id="116,114" /><path d="M 373.4 104.5 L 373.4 70.1 L 559.9 70.1" id="115,113" /><path d="M 373.4 104.5 L 373.4 138.8 L 514.0 138.8" id="115,112" /><path d="M 265.6 256.2 L 265.6 293.1 L 498.5 293.1" id="114,111" /><path d="M 514.0 138.8 L 514.0 107.4 L 566.2 107.4" id="112,110" /><path d="M 514.0 138.8 L 514.0 170.2 L 632.8 170.2" id="112,109" /><path d="M 498.5 293.1 L 498.5 351.4 L 566.4 351.4" id="111,108" /><path d="M 566.2 107.4 L 566.2 121.1 L 597.9 121.1" id="110,107" /><path d="M 632.8 170.2 L 632.8 183.9 L 642.4 183.9" id="109,106" /><path d="M 566.4 351.4 L 566.4 262.4 L 663.4 262.4" id="108,105" /><path d="M 566.4 351.4 L 566.4 440.3 L 584.0 440.3" id="108,104" /><path d="M 597.9 121.1 L 597.9 132.9 L 619.2 132.9" id="107,103" /><path d="M 642.4 183.9 L 642.4 195.7 L 658.8 195.7" id="106,102" /><path d="M 663.4 262.4 L 663.4 274.2 L 668.9 274.2" id="105,101" /><path d="M 584.0 440.3 L 584.0 305.6 L 663.5 305.6" id="104,100" /><path d="M 584.0 440.3 L 584.0 575.0 L 588.2 575.0" id="104,99" /><path d="M 588.2 575.0 L 588.2 416.8 L 606.2 416.8" id="99,98" /><path d="M 588.2 575.0 L 588.2 733.3 L 603.2 733.3" id="99,97" /><path d="M 606.2 416.8 L 606.2 354.6 L 629.8 354.6" id="98,96" /><path d="M 606.2 416.8 L 606.2 478.9 L 622.6 478.9" id="98,95" /><path d="M 603.2 733.3 L 603.2 657.6 L 617.9 657.6" id="97,94" /><path d="M 603.2 733.3 L 603.2 809.0 L 620.2 809.0" id="97,93" /><path d="M 629.8 354.6 L 629.8 337.0 L 648.8 337.0" id="96,92" /><path d="M 629.8 354.6 L 629.8 372.3 L 650.0 372.3" id="96,91" /><path d="M 622.6 478.9 L 622.6 439.0 L 631.6 439.0" id="95,90" /><path d="M 622.6 478.9 L 622.6 518.7 L 629.9 518.7" id="95,89" /><path d="M 617.9 657.6 L 617.9 635.2 L 661.1 635.2" id="94,88" /><path d="M 617.9 657.6 L 617.9 679.9 L 629.3 679.9" id="94,87" /><path d="M 620.2 809.0 L 620.2 849.4 L 626.8 849.4" id="93,86" /><path d="M 650.0 372.3 L 650.0 384.1 L 661.8 384.1" id="91,85" /><path d="M 631.6 439.0 L 631.6 415.5 L 659.3 415.5" id="90,84" /><path d="M 631.6 439.0 L 631.6 462.6 L 637.9 462.6" id="90,83" /><path d="M 629.9 518.7 L 629.9 535.7 L 638.0 535.7" id="89,82" /><path d="M 629.3 679.9 L 629.3 701.0 L 635.9 701.0" id="87,81" /><path d="M 626.8 849.4 L 626.8 799.1 L 643.1 799.1" id="86,80" /><path d="M 626.8 849.4 L 626.8 899.6 L 639.3 899.6" id="86,79" /><path d="M 637.9 462.6 L 637.9 446.9 L 653.6 446.9" id="83,78" /><path d="M 637.9 462.6 L 637.9 478.3 L 645.9 478.3" id="83,77" /><path d="M 638.0 535.7 L 638.0 553.8 L 646.0 553.8" id="82,76" /><path d="M 635.9 701.0 L 635.9 682.3 L 653.1 682.3" id="81,75" /><path d="M 635.9 701.0 L 635.9 719.6 L 649.5 719.6" id="81,74" /><path d="M 643.1 799.1 L 643.1 813.8 L 650.3 813.8" id="80,73" /><path d="M 639.3 899.6 L 639.3 874.6 L 658.6 874.6" id="79,72" /><path d="M 639.3 899.6 L 639.3 924.7 L 647.0 924.7" id="79,71" /><path d="M 646.0 553.8 L 646.0 574.4 L 655.0 574.4" id="76,70" /><path d="M 649.5 719.6 L 649.5 733.3 L 655.8 733.3" id="74,69" /><path d="M 650.3 813.8 L 650.3 827.5 L 659.7 827.5" id="73,68" /><path d="M 658.6 874.6 L 658.6 886.4 L 665.9 886.4" id="72,67" /><path d="M 647.0 924.7 L 647.0 939.4 L 651.0 939.4" id="71,66" /><path d="M 655.0 574.4 L 655.0 556.7 L 662.7 556.7" id="70,65" /><path d="M 655.0 574.4 L 655.0 592.1 L 663.0 592.1" id="70,64" /><path d="M 655.8 733.3 L 655.8 745.1 L 664.4 745.1" id="69,63" /><path d="M 659.7 827.5 L 659.7 839.3 L 670.3 839.3" id="68,62" /><path d="M 651.0 939.4 L 651.0 953.1 L 655.6 953.1" id="66,61" /><path d="M 663.0 592.1 L 663.0 603.8 L 667.2 603.8" id="64,60" /><path d="M 655.6 953.1 L 655.6 964.9 L 664.8 964.9" id="61,59" /><path d="M 559.9 70.1 L 559.9 62.3 L 677.8 62.3" id="113,58" /><path d="M 559.9 70.1 L 559.9 78.0 L 677.8 78.0" id="113,57" /><path d="M 566.2 107.4 L 566.2 93.7 L 677.8 93.7" id="110,56" /><path d="M 597.9 121.1 L 597.9 109.4 L 677.8 109.4" id="107,55" /><path d="M 619.2 132.9 L 619.2 125.1 L 677.8 125.1" id="103,54" /><path d="M 619.2 132.9 L 619.2 140.8 L 677.8 140.8" id="103,53" /><path d="M 632.8 170.2 L 632.8 156.5 L 677.8 156.5" id="109,52" /><path d="M 642.4 183.9 L 642.4 172.2 L 677.8 172.2" id="106,51" /><path d="M 658.8 195.7 L 658.8 187.9 L 677.8 187.9" id="102,50" /><path d="M 658.8 195.7 L 658.8 203.5 L 677.8 203.5" id="102,49" /><path d="M 265.6 256.2 L 265.6 219.2 L 316.9 219.2" id="114,48" /><path d="M 498.5 293.1 L 498.5 234.9 L 518.0 234.9" id="111,47" /><path d="M 663.4 262.4 L 663.4 250.6 L 677.8 250.6" id="105,46" /><path d="M 668.9 274.2 L 668.9 266.3 L 677.8 266.3" id="101,45" /><path d="M 668.9 274.2 L 668.9 282.0 L 677.8 282.0" id="101,44" /><path d="M 663.5 305.6 L 663.5 297.7 L 677.8 297.7" id="100,43" /><path d="M 663.5 305.6 L 663.5 313.4 L 677.8 313.4" id="100,42" /><path d="M 648.8 337.0 L 648.8 329.1 L 677.8 329.1" id="92,41" /><path d="M 648.8 337.0 L 648.8 344.8 L 677.8 344.8" id="92,40" /><path d="M 650.0 372.3 L 650.0 360.5 L 677.8 360.5" id="91,39" /><path d="M 661.8 384.1 L 661.8 376.2 L 677.8 376.2" id="85,38" /><path d="M 661.8 384.1 L 661.8 391.9 L 677.8 391.9" id="85,37" /><path d="M 659.3 415.5 L 659.3 407.6 L 677.8 407.6" id="84,36" /><path d="M 659.3 415.5 L 659.3 423.3 L 677.8 423.3" id="84,35" /><path d="M 653.6 446.9 L 653.6 439.0 L 677.8 439.0" id="78,34" /><path d="M 653.6 446.9 L 653.6 454.7 L 677.8 454.7" id="78,33" /><path d="M 645.9 478.3 L 645.9 470.4 L 677.8 470.4" id="77,32" /><path d="M 645.9 478.3 L 645.9 486.1 L 677.8 486.1" id="77,31" /><path d="M 629.9 518.7 L 629.9 501.8 L 677.8 501.8" id="89,30" /><path d="M 638.0 535.7 L 638.0 517.5 L 677.8 517.5" id="82,29" /><path d="M 646.0 553.8 L 646.0 533.2 L 677.8 533.2" id="76,28" /><path d="M 662.7 556.7 L 662.7 548.9 L 677.8 548.9" id="65,27" /><path d="M 662.7 556.7 L 662.7 564.6 L 677.8 564.6" id="65,26" /><path d="M 663.0 592.1 L 663.0 580.3 L 677.8 580.3" id="64,25" /><path d="M 667.2 603.8 L 667.2 596.0 L 677.8 596.0" id="60,24" /><path d="M 667.2 603.8 L 667.2 611.7 L 677.8 611.7" id="60,23" /><path d="M 661.1 635.2 L 661.1 627.4 L 677.8 627.4" id="88,22" /><path d="M 661.1 635.2 L 661.1 643.1 L 677.8 643.1" id="88,21" /><path d="M 629.3 679.9 L 629.3 658.8 L 677.8 658.8" id="87,20" /><path d="M 653.1 682.3 L 653.1 674.5 L 677.8 674.5" id="75,19" /><path d="M 653.1 682.3 L 653.1 690.2 L 677.8 690.2" id="75,18" /><path d="M 649.5 719.6 L 649.5 705.9 L 677.8 705.9" id="74,17" /><path d="M 655.8 733.3 L 655.8 721.6 L 677.8 721.6" id="69,16" /><path d="M 664.4 745.1 L 664.4 737.3 L 677.8 737.3" id="63,15" /><path d="M 664.4 745.1 L 664.4 753.0 L 677.8 753.0" id="63,14" /><path d="M 620.2 809.0 L 620.2 768.7 L 677.8 768.7" id="93,13" /><path d="M 643.1 799.1 L 643.1 784.4 L 677.8 784.4" id="80,12" /><path d="M 650.3 813.8 L 650.3 800.1 L 677.8 800.1" id="73,11" /><path d="M 659.7 827.5 L 659.7 815.8 L 677.8 815.8" id="68,10" /><path d="M 670.3 839.3 L 670.3 831.5 L 677.8 831.5" id="62,9" /><path d="M 670.3 839.3 L 670.3 847.1 L 677.8 847.1" id="62,8" /><path d="M 658.6 874.6 L 658.6 862.8 L 677.8 862.8" id="72,7" /><path d="M 665.9 886.4 L 665.9 878.5 L 677.8 878.5" id="67,6" /><path d="M 665.9 886.4 L 665.9 894.2 L 677.8 894.2" id="67,5" /><path d="M 647.0 924.7 L 647.0 909.9 L 677.8 909.9" id="71,4" /><path d="M 651.0 939.4 L 651.0 925.6 L 677.8 925.6" id="66,3" /><path d="M 655.6 953.1 L 655.6 941.3 L 677.8 941.3" id="61,2" /><path d="M 664.8 964.9 L 664.8 957.0 L 677.8 957.0" id="59,1" /><path d="M 664.8 964.9 L 664.8 972.7 L 677.8 972.7" id="59,0" /></g><g class="toytree-AlignEdges" style="stroke:rgb(66.3%,66.3%,66.3%);stroke-dasharray:2, 4;stroke-linecap:round;stroke-opacity:1.0;stroke-width:2"><path d="M 677.8 972.7 L 677.8 972.7" /><path d="M 677.8 957.0 L 677.8 957.0" /><path d="M 677.8 941.3 L 677.8 941.3" /><path d="M 677.8 925.6 L 677.8 925.6" /><path d="M 677.8 909.9 L 677.8 909.9" /><path d="M 677.8 894.2 L 677.8 894.2" /><path d="M 677.8 878.5 L 677.8 878.5" /><path d="M 677.8 862.8 L 677.8 862.8" /><path d="M 677.8 847.1 L 677.8 847.1" /><path d="M 677.8 831.5 L 677.8 831.5" /><path d="M 677.8 815.8 L 677.8 815.8" /><path d="M 677.8 800.1 L 677.8 800.1" /><path d="M 677.8 784.4 L 677.8 784.4" /><path d="M 677.8 768.7 L 677.8 768.7" /><path d="M 677.8 753.0 L 677.8 753.0" /><path d="M 677.8 737.3 L 677.8 737.3" /><path d="M 677.8 721.6 L 677.8 721.6" /><path d="M 677.8 705.9 L 677.8 705.9" /><path d="M 677.8 690.2 L 677.8 690.2" /><path d="M 677.8 674.5 L 677.8 674.5" /><path d="M 677.8 658.8 L 677.8 658.8" /><path d="M 677.8 643.1 L 677.8 643.1" /><path d="M 677.8 627.4 L 677.8 627.4" /><path d="M 677.8 611.7 L 677.8 611.7" /><path d="M 677.8 596.0 L 677.8 596.0" /><path d="M 677.8 580.3 L 677.8 580.3" /><path d="M 677.8 564.6 L 677.8 564.6" /><path d="M 677.8 548.9 L 677.8 548.9" /><path d="M 677.8 533.2 L 677.8 533.2" /><path d="M 677.8 517.5 L 677.8 517.5" /><path d="M 677.8 501.8 L 677.8 501.8" /><path d="M 677.8 486.1 L 677.8 486.1" /><path d="M 677.8 470.4 L 677.8 470.4" /><path d="M 677.8 454.7 L 677.8 454.7" /><path d="M 677.8 439.0 L 677.8 439.0" /><path d="M 677.8 423.3 L 677.8 423.3" /><path d="M 677.8 407.6 L 677.8 407.6" /><path d="M 677.8 391.9 L 677.8 391.9" /><path d="M 677.8 376.2 L 677.8 376.2" /><path d="M 677.8 360.5 L 677.8 360.5" /><path d="M 677.8 344.8 L 677.8 344.8" /><path d="M 677.8 329.1 L 677.8 329.1" /><path d="M 677.8 313.4 L 677.8 313.4" /><path d="M 677.8 297.7 L 677.8 297.7" /><path d="M 677.8 282.0 L 677.8 282.0" /><path d="M 677.8 266.3 L 677.8 266.3" /><path d="M 677.8 250.6 L 677.8 250.6" /><path d="M 677.8 234.9 L 518.0 234.9" /><path d="M 677.8 219.2 L 316.9 219.2" /><path d="M 677.8 203.5 L 677.8 203.5" /><path d="M 677.8 187.9 L 677.8 187.9" /><path d="M 677.8 172.2 L 677.8 172.2" /><path d="M 677.8 156.5 L 677.8 156.5" /><path d="M 677.8 140.8 L 677.8 140.8" /><path d="M 677.8 125.1 L 677.8 125.1" /><path d="M 677.8 109.4 L 677.8 109.4" /><path d="M 677.8 93.7 L 677.8 93.7" /><path d="M 677.8 78.0 L 677.8 78.0" /><path d="M 677.8 62.3 L 677.8 62.3" /></g><g class="toytree-TipLabels" style="fill:rgb(14.9%,14.9%,14.9%);fill-opacity:1.0;font-family:helvetica;font-size:11px;font-weight:normal;stroke:none;white-space:pre"><g transform="translate(677.84,972.73)rotate(0)"><a href="https://glottolog.org/resource/languoid/id/toku1245#############"><text x="15.00" y="2.81" style="" fill="#0000ff">TOKUSHIMA - Tokushima-ben [toku1245#############]</text></a></g><g transform="translate(677.84,957.03)rotate(0)"><text x="15.00" y="2.81" style="">HYOGO</text></g><g transform="translate(677.84,941.34)rotate(0)"><a href="https://glottolog.org/resource/languoid/id/okay1237#############"><text x="15.00" y="2.81" style="" fill="#0000ff">OKAYAMA - Okayama [okay1237#############]</text></a></g><g transform="translate(677.84,925.64)rotate(0)"><a href="https://glottolog.org/resource/languoid/id/hiro1237#############"><text x="15.00" y="2.81" style="" fill="#0000ff">HIROSHIMA - Hiroshima [hiro1237#############]</text></a></g><g transform="translate(677.84,909.94)rotate(0)"><a href="https://glottolog.org/resource/languoid/id/shig1237#############"><text x="15.00" y="2.81" style="" fill="#0000ff">SHIGA - Shiga [shig1237#############]</text></a></g><g transform="translate(677.84,894.24)rotate(0)"><a href="https://glottolog.org/resource/languoid/id/west2607#############"><text x="15.00" y="2.81" style="" fill="#0000ff">KOCHI - Western Japanese [west2607#############]</text></a></g><g transform="translate(677.84,878.55)rotate(0)"><text x="15.00" y="2.81" style="">EHIME</text></g><g transform="translate(677.84,862.85)rotate(0)"><a href="https://glottolog.org/resource/languoid/id/kaga1258#############"><text x="15.00" y="2.81" style="" fill="#0000ff">KAGAWA - Kagawa-ben [kaga1258#############]</text></a></g><g transform="translate(677.84,847.15)rotate(0)"><a href="https://glottolog.org/resource/languoid/id/osak1237#############"><text x="15.00" y="2.81" style="" fill="#0000ff">OSAKA - Ōsaka [osak1237#############]</text></a></g><g transform="translate(677.84,831.45)rotate(0)"><a href="https://glottolog.org/resource/languoid/id/kyot1238#############"><text x="15.00" y="2.81" style="" fill="#0000ff">KYOTO - Kyoto [kyot1238#############]</text></a></g><g transform="translate(677.84,815.75)rotate(0)"><a href="https://glottolog.org/resource/languoid/id/waka1279#############"><text x="15.00" y="2.81" style="" fill="#0000ff">WAKAYAMA - Wakayama [waka1279#############]</text></a></g><g transform="translate(677.84,800.06)rotate(0)"><text x="15.00" y="2.81" style="">NARA</text></g><g transform="translate(677.84,784.36)rotate(0)"><a href="https://glottolog.org/resource/languoid/id/miee1237#############"><text x="15.00" y="2.81" style="" fill="#0000ff">MIE - Mie [miee1237#############]</text></a></g><g transform="translate(677.84,768.66)rotate(0)"><a href="https://glottolog.org/resource/languoid/id/yama1261#############"><text x="15.00" y="2.81" style="" fill="#0000ff">YAMAGUCHI - Yamaguchi [yama1261#############]</text></a></g><g transform="translate(677.84,752.96)rotate(0)"><a href="https://glottolog.org/resource/languoid/id/nort2935#############"><text x="15.00" y="2.81" style="" fill="#0000ff">KAGOSHIMA - Northern Amami-Oshima [nort2935#############]</text></a></g><g transform="translate(677.84,737.27)rotate(0)"><a href="https://glottolog.org/resource/languoid/id/miya1258#############"><text x="15.00" y="2.81" style="" fill="#0000ff">MIYAZAKI - Miyazaki-ben [miya1258#############]</text></a></g><g transform="translate(677.84,721.57)rotate(0)"><a href="https://glottolog.org/resource/languoid/id/kuma1281#############"><text x="15.00" y="2.81" style="" fill="#0000ff">KUMAMOTO - Kumamoto-ben [kuma1281#############]</text></a></g><g transform="translate(677.84,705.87)rotate(0)"><a href="https://glottolog.org/resource/languoid/id/oita1237#############"><text x="15.00" y="2.81" style="" fill="#0000ff">OITA - Ōita-ben [oita1237#############]</text></a></g><g transform="translate(677.84,690.17)rotate(0)"><a href="https://glottolog.org/resource/languoid/id/saga1265#############"><text x="15.00" y="2.81" style="" fill="#0000ff">SAGA - Saga-ben [saga1265#############]</text></a></g><g transform="translate(677.84,674.48)rotate(0)"><a href="https://glottolog.org/resource/languoid/id/yana1269#############"><text x="15.00" y="2.81" style="" fill="#0000ff">FUKUOKA - Yanagawa-ben [yana1269#############]</text></a></g><g transform="translate(677.84,658.78)rotate(0)"><a href="https://glottolog.org/resource/languoid/id/naga1405#############"><text x="15.00" y="2.81" style="" fill="#0000ff">NAGASAKI - Nagasaki-ben [naga1405#############]</text></a></g><g transform="translate(677.84,643.08)rotate(0)"><a href="https://glottolog.org/resource/languoid/id/izum1237#############"><text x="15.00" y="2.81" style="" fill="#0000ff">SHIMANE - Izumo-ben [izum1237#############]</text></a></g><g transform="translate(677.84,627.38)rotate(0)"><a href="https://glottolog.org/resource/languoid/id/tott1237#############"><text x="15.00" y="2.81" style="" fill="#0000ff">TOTTORI - Tottori [tott1237#############]</text></a></g><g transform="translate(677.84,611.69)rotate(0)"><text x="15.00" y="2.81" style="">MIYAGI</text></g><g transform="translate(677.84,595.99)rotate(0)"><a href="https://glottolog.org/resource/languoid/id/yama1262#############"><text x="15.00" y="2.81" style="" fill="#0000ff">YAMAGATA - Yamagata [yama1262#############]</text></a></g><g transform="translate(677.84,580.29)rotate(0)"><a href="https://glottolog.org/resource/languoid/id/tsug1237#############"><text x="15.00" y="2.81" style="" fill="#0000ff">AOMORI - Tsugaru [tsug1237#############]</text></a></g><g transform="translate(677.84,564.59)rotate(0)"><a href="https://glottolog.org/resource/languoid/id/akit1240#############"><text x="15.00" y="2.81" style="" fill="#0000ff">AKITA - Akita [akit1240#############]</text></a></g><g transform="translate(677.84,548.90)rotate(0)"><a href="https://glottolog.org/resource/languoid/id/sout2953#############"><text x="15.00" y="2.81" style="" fill="#0000ff">IWATE - Southern Tōhoku [sout2953#############]</text></a></g><g transform="translate(677.84,533.20)rotate(0)"><a href="https://glottolog.org/resource/languoid/id/fuku1243#############"><text x="15.00" y="2.81" style="" fill="#0000ff">FUKUSHIMA - Fukushima [fuku1243#############]</text></a></g><g transform="translate(677.84,517.50)rotate(0)"><a href="https://glottolog.org/resource/languoid/id/ibar1242#############"><text x="15.00" y="2.81" style="" fill="#0000ff">IBARAGI - Ibaraki [ibar1242#############]</text></a></g><g transform="translate(677.84,501.80)rotate(0)"><a href="https://glottolog.org/resource/languoid/id/toch1258#############"><text x="15.00" y="2.81" style="" fill="#0000ff">TOCHIGI - Tochigi [toch1258#############]</text></a></g><g transform="translate(677.84,486.10)rotate(0)"><a href="https://glottolog.org/resource/languoid/id/shiz1237#############"><text x="15.00" y="2.81" style="" fill="#0000ff">SHIZUOKA - Shizuoka [shiz1237#############]</text></a></g><g transform="translate(677.84,470.41)rotate(0)"><a href="https://glottolog.org/resource/languoid/id/hach1239#############"><text x="15.00" y="2.81" style="" fill="#0000ff">HACHIJO - Hachijo [hach1239#############]</text></a></g><g transform="translate(677.84,454.71)rotate(0)"><a href="https://glottolog.org/resource/languoid/id/niig1237#############"><text x="15.00" y="2.81" style="" fill="#0000ff">NIGATA - Niigata [niig1237#############]</text></a></g><g transform="translate(677.84,439.01)rotate(0)"><a href="https://glottolog.org/resource/languoid/id/naga1408#############"><text x="15.00" y="2.81" style="" fill="#0000ff">NAGANO - Nagano [naga1408#############]</text></a></g><g transform="translate(677.84,423.31)rotate(0)"><a href="https://glottolog.org/resource/languoid/id/gunm1237#############"><text x="15.00" y="2.81" style="" fill="#0000ff">GUNMA - Gunma [gunm1237#############]</text></a></g><g transform="translate(677.84,407.62)rotate(0)"><text x="15.00" y="2.81" style="">SAITAMA</text></g><g transform="translate(677.84,391.92)rotate(0)"><text x="15.00" y="2.81" style="">ISHIKAWA</text></g><g transform="translate(677.84,376.22)rotate(0)"><a href="https://glottolog.org/resource/languoid/id/toya1237#############"><text x="15.00" y="2.81" style="" fill="#0000ff">TOYAMA - Toyama [toya1237#############]</text></a></g><g transform="translate(677.84,360.52)rotate(0)"><a href="https://glottolog.org/resource/languoid/id/fuku1241#############"><text x="15.00" y="2.81" style="" fill="#0000ff">FUKUI - Fukui [fuku1241#############]</text></a></g><g transform="translate(677.84,344.83)rotate(0)"><a href="https://glottolog.org/resource/languoid/id/chib1248#############"><text x="15.00" y="2.81" style="" fill="#0000ff">CHIBA - Chiba [chib1248#############]</text></a></g><g transform="translate(677.84,329.13)rotate(0)"><a href="https://glottolog.org/resource/languoid/id/kana1290#############"><text x="15.00" y="2.81" style="" fill="#0000ff">KANAGAWA - Kanagawa [kana1290#############]</text></a></g><g transform="translate(677.84,313.43)rotate(0)"><a href="https://glottolog.org/resource/languoid/id/gifu1238#############"><text x="15.00" y="2.81" style="" fill="#0000ff">GIFU - Gifu-Aichi [gifu1238#############]</text></a></g><g transform="translate(677.84,297.73)rotate(0)"><a href="https://glottolog.org/resource/languoid/id/gifu1238#############"><text x="15.00" y="2.81" style="" fill="#0000ff">AICHI - Gifu-Aichi [gifu1238#############]</text></a></g><g transform="translate(677.84,282.04)rotate(0)"><a href="https://glottolog.org/resource/languoid/id/yama1263#############"><text x="15.00" y="2.81" style="" fill="#0000ff">YAMANASHI - Yamanashi [yama1263#############]</text></a></g><g transform="translate(677.84,266.34)rotate(0)"><a href="https://glottolog.org/resource/languoid/id/hokk1249#############"><text x="15.00" y="2.81" style="" fill="#0000ff">HOKKAIDO - Hokkaidō [hokk1249#############]</text></a></g><g transform="translate(677.84,250.64)rotate(0)"><a href="https://glottolog.org/resource/languoid/id/toky1238#############"><text x="15.00" y="2.81" style="" fill="#0000ff">TOKYO - Tōkyō [toky1238#############]</text></a></g><g transform="translate(677.84,234.94)rotate(0)"><text x="15.00" y="2.81" style="">MIDDLE_JAPANESE</text></g><g transform="translate(677.84,219.25)rotate(0)"><a href="https://glottolog.org/resource/languoid/id/oldj1239#############"><text x="15.00" y="2.81" style="" fill="#0000ff">OLD_JAPANESE - Old Japanese [oldj1239#############]</text></a></g><g transform="translate(677.84,203.55)rotate(0)"><text x="15.00" y="2.81" style="">IRAFU</text></g><g transform="translate(677.84,187.85)rotate(0)"><text x="15.00" y="2.81" style="">IKEMA</text></g><g transform="translate(677.84,172.15)rotate(0)"><a href="https://glottolog.org/resource/languoid/id/miya1260#############"><text x="15.00" y="2.81" style="" fill="#0000ff">HIRARA - Miyako-Jima [miya1260#############]</text></a></g><g transform="translate(677.84,156.45)rotate(0)"><a href="https://glottolog.org/resource/languoid/id/tara1319#############"><text x="15.00" y="2.81" style="" fill="#0000ff">TARAMA - Tarama-Minna [tara1319#############]</text></a></g><g transform="translate(677.84,140.76)rotate(0)"><a href="https://glottolog.org/resource/languoid/id/take1256#############"><text x="15.00" y="2.81" style="" fill="#0000ff">TAKETOMI - Taketomi [take1256#############]</text></a></g><g transform="translate(677.84,125.06)rotate(0)"><a href="https://glottolog.org/resource/languoid/id/ishi1240#############"><text x="15.00" y="2.81" style="" fill="#0000ff">ISHIGAKI - Ishigaki [ishi1240#############]</text></a></g><g transform="translate(677.84,109.36)rotate(0)"><a href="https://glottolog.org/resource/languoid/id/hate1238#############"><text x="15.00" y="2.81" style="" fill="#0000ff">HATERUMA - Hateruma [hate1238#############]</text></a></g><g transform="translate(677.84,93.66)rotate(0)"><a href="https://glottolog.org/resource/languoid/id/yona1241#############"><text x="15.00" y="2.81" style="" fill="#0000ff">YONAGUNI - Yonaguni [yona1241#############]</text></a></g><g transform="translate(677.84,77.97)rotate(0)"><a href="https://glottolog.org/resource/languoid/id/naze1238#############"><text x="15.00" y="2.81" style="" fill="#0000ff">NAZE - Naze [naze1238#############]</text></a></g><g transform="translate(677.84,62.27)rotate(0)"><a href="https://glottolog.org/resource/languoid/id/okin1244#############"><text x="15.00" y="2.81" style="" fill="#0000ff">OKINAWA - Okinawa [okin1244#############]</text></a></g></g></g></g><g class="toyplot-coordinates-Axis" id="t3c93173055354b6d9097f1231d6e96e9" transform="translate(50.0,985.0)translate(0,20.0)"><line x1="1.3921124455625804" y1="0" x2="627.842712948734" y2="0" style="" /><g><line x1="627.842712948734" y1="0" x2="627.842712948734" y2="-5" style="" /><line x1="558.2370906706037" y1="0" x2="558.2370906706037" y2="-5" style="" /><line x1="488.6314683924736" y1="0" x2="488.6314683924736" y2="-5" style="" /><line x1="419.02584611434344" y1="0" x2="419.02584611434344" y2="-5" style="" /><line x1="349.42022383621327" y1="0" x2="349.42022383621327" y2="-5" style="" /><line x1="279.81460155808315" y1="0" x2="279.81460155808315" y2="-5" style="" /><line x1="210.208979279953" y1="0" x2="210.208979279953" y2="-5" style="" /><line x1="140.60335700182284" y1="0" x2="140.60335700182284" y2="-5" style="" /><line x1="70.99773472369272" y1="0" x2="70.99773472369272" y2="-5" style="" /><line x1="1.3921124455625804" y1="0" x2="1.3921124455625804" y2="-5" style="" /></g><g><g transform="translate(627.842712948734,6)"><text x="-2.78" y="8.555" style="fill:rgb(16.1%,15.3%,14.1%);fill-opacity:1.0;font-family:helvetica;font-size:10.0px;font-weight:normal;stroke:none;vertical-align:baseline;white-space:pre">0</text></g><g transform="translate(558.2370906706037,6)"><text x="-8.34" y="8.555" style="fill:rgb(16.1%,15.3%,14.1%);fill-opacity:1.0;font-family:helvetica;font-size:10.0px;font-weight:normal;stroke:none;vertical-align:baseline;white-space:pre">242</text></g><g transform="translate(488.6314683924736,6)"><text x="-8.34" y="8.555" style="fill:rgb(16.1%,15.3%,14.1%);fill-opacity:1.0;font-family:helvetica;font-size:10.0px;font-weight:normal;stroke:none;vertical-align:baseline;white-space:pre">485</text></g><g transform="translate(419.02584611434344,6)"><text x="-8.34" y="8.555" style="fill:rgb(16.1%,15.3%,14.1%);fill-opacity:1.0;font-family:helvetica;font-size:10.0px;font-weight:normal;stroke:none;vertical-align:baseline;white-space:pre">727</text></g><g transform="translate(349.42022383621327,6)"><text x="-8.34" y="8.555" style="fill:rgb(16.1%,15.3%,14.1%);fill-opacity:1.0;font-family:helvetica;font-size:10.0px;font-weight:normal;stroke:none;vertical-align:baseline;white-space:pre">970</text></g><g transform="translate(279.81460155808315,6)"><text x="-11.12" y="8.555" style="fill:rgb(16.1%,15.3%,14.1%);fill-opacity:1.0;font-family:helvetica;font-size:10.0px;font-weight:normal;stroke:none;vertical-align:baseline;white-space:pre">1212</text></g><g transform="translate(210.208979279953,6)"><text x="-11.12" y="8.555" style="fill:rgb(16.1%,15.3%,14.1%);fill-opacity:1.0;font-family:helvetica;font-size:10.0px;font-weight:normal;stroke:none;vertical-align:baseline;white-space:pre">1455</text></g><g transform="translate(140.60335700182284,6)"><text x="-11.12" y="8.555" style="fill:rgb(16.1%,15.3%,14.1%);fill-opacity:1.0;font-family:helvetica;font-size:10.0px;font-weight:normal;stroke:none;vertical-align:baseline;white-space:pre">1697</text></g><g transform="translate(70.99773472369272,6)"><text x="-11.12" y="8.555" style="fill:rgb(16.1%,15.3%,14.1%);fill-opacity:1.0;font-family:helvetica;font-size:10.0px;font-weight:normal;stroke:none;vertical-align:baseline;white-space:pre">1939</text></g><g transform="translate(1.3921124455625804,6)"><text x="-11.12" y="8.555" style="fill:rgb(16.1%,15.3%,14.1%);fill-opacity:1.0;font-family:helvetica;font-size:10.0px;font-weight:normal;stroke:none;vertical-align:baseline;white-space:pre">2182</text></g></g><g class="toyplot-coordinates-Axis-coordinates" style="visibility:hidden" transform=""><line x1="0" x2="0" y1="-3.0" y2="4.5" style="stroke:rgb(43.9%,50.2%,56.5%);stroke-opacity:1.0;stroke-width:1.0" /><text x="0" y="-6" style="alignment-baseline:alphabetic;fill:rgb(43.9%,50.2%,56.5%);fill-opacity:1.0;font-size:10px;font-weight:normal;stroke:none;text-anchor:middle" /></g></g><g transform="translate(500.0,42.0)"><text x="-272.32800000000003" y="-4.823" style="fill:rgb(16.1%,15.3%,14.1%);fill-opacity:1.0;font-family:helvetica;font-size:14.0px;font-weight:bold;stroke:none;vertical-align:baseline;white-space:pre">Summary tree of a Bayesian analysis of the Japonic family with branches in years</text></g></g></svg>